/* XPM */
static char *_8f5f6680c1c4d1faa726f996d26d4bf[] = {
/* columns rows colors chars-per-pixel */
"128 128 3 1 ",
"  c #E62D00",
". c #E62E00",
"X c None",
/* pixels */
"XXXXXXXXXXXXXXXXXXXXXXXXXXXXXXXXXXXXXXXXXXXXXXXXXXXXXXXXXXXXXXXXXXXXXXXXXXXXXXXXXXXXXXXXXXXXXXXXXXXXXXXXXXXXXXXXXXXXXXXXXXXXXXXX",
"XXXXXXXXXXXXXXXXXXXXXXXXXXXXXXXXXXXXXXXXXXXXXXXXXXXXXXXXXXXXXXXXXXXXXXXXXXXXXXXXXXXXXXXXXXXXXXXXXXXXXXXXXXXXXXXXXXXXXXXXXXXXXXXX",
"XXXXXXXXXXXXXXXXXXXXXXXXXXXXXXXXXXXXXXXXXXXXXXXXXXXXXXXXXXXXXXXXXXXXXXXXXXXXXXXXXXXXXXXXXXXXXXXXXXXXXXXXXXXXXXXXXXXXXXXXXXXXXXXX",
"XXXXXXXXXXXXXXXXXXXXXXXXXXXXXXXXXXXXXXXXXXXXXXXXXXXXXXXXXXXXXXXXXXXXXXXXXXXXXXXXXXXXXXXXXXXXXXXXXXXXXXXXXXXXXXXXXXXXXXXXXXXXXXXX",
"X..............................................................................................................................X",
"X..............................................................................................................................X",
"X..............................................................................................................................X",
"X..............................................................................................................................X",
"X..............................................................................................................................X",
"X..............................................................................................................................X",
"X..............................................................................................................................X",
"X..............................................................................................................................X",
"X..............................................................................................................................X",
"X..........X........................................................................................................X..........X",
"X.........XXXXXXXXXXXXXXXXXXXXXXXXXXXXXXXXXXXXXXXXXXXXXXXXXXXXXXXXXXXXXXXXXXXXXXXXXXXXXXXXXXXXXXXXXXXXXXXXXXXXXXXXXXXX.........X",
"X.........XXXXXXXXXXXXXXXXXXXXXXXXXXXXXXXXXXXXXXXXXXXXXXXXXXXXXXXXXXXXXXXXXXXXXXXXXXXXXXXXXXXXXXXXXXXXXXXXXXXXXXXXXXXX.........X",
"X.........XXXXXXXXXXXXXXXXXXXXXXXXXXXXXXXXXXXXXXXXXXXXXXXXXXXXXXXXXXXXXXXXXXXXXXXXXXXXXXXXXXXXXXXXXXXXXXXXXXXXXXXXXXXX.........X",
"X.........XXXXXXXXXXXXXXXXXXXXXXXXXXXXXXXXXXXXXXXXXXXXXXXXXXXXXXXXXXXXXXXXXXXXXXXXXXXXXXXXXXXXXXXXXXXXXXXXXXXXXXXXXXXX.........X",
"X.........XXXXXXXXXXXXXXXXXXXXXXXXXXXXXXXXXXXXXXXXXXXXXXXXXXXXXXXXXXXXXXXXXXXXXXXXXXXXXXXXXXXXXXXXXXXXXXXXXXXXXXXXXXXX.........X",
"X.........XXXXXXXXXXXXXXXXXXXXXXXXXXXXXXXXXXXXXXXXXXXXXXXXXXXXXXXXXXXXXXXXXXXXXXXXXXXXXXXXXXXXXXXXXXXXXXXXXXXXXXXXXXXX.........X",
"X.........XXXXXXXXXXXXXXXXXXXXXXXXXXXXXXXXXXXXXXXXXXXXXXXXXXXXXXXXXXXXXXXXXXXXXXXXXXXXXXXXXXXXXXXXXXXXXXXXXXXXXXXXXXXX.........X",
"X.........XXXXXXXXX...  ... ....  ..... ..  ..  ....  ......  ....XXXXXXXXXXXX. ... ....  ..... ....  .......XXXXXXXXX.........X",
"X.........XXXXXXXXX..   ..    .     ..  .   .     .       .     ..XXXXXXXXXXXX  ..    .     ..    .       . XXXXXXXXXX.........X",
"X.........XXXXXXXXX.                                            .XXXXXXXXXXXX.                           ..XXXXXXXXXXX.........X",
"X.........XXXXXXXXX.                                          ..XXXXXXXXXXXX                            . XXXXXXXXXXXX.........X",
"X.........XXXXXXXXX.                                          .XXXXXXXXXXXX.                            ..XXXXXXXXXXXX.........X",
"X.........XXXXXXXXX.                                         .XXXXXXXXXXXX..                            .XXXXXXXXXXXXX.........X",
"X.........XXXXXXXXX                                        . XXXXXXXXXXXX  .                            XXXXXXXXXXXXXX.........X",
"X.........XXXXXXXXX.                                       .XXXXXXXXXXXX..                             XXXXXXXXXXXXXXX.........X",
"X.........XXXXXXXXX.                                       XXXXXXXXXXXX  .                            XXXXXXXXXXXXXXXX.........X",
"X.........XXXXXXXXX.                                    ..XXXXXXXXXXXX.                           . .XXXXXXXXXXXXXXXXX.........X",
"X.........XXXXXXXXX.                                    .XXXXXXXXXXXXX..                          ..XXXXXXXXXXXXXXXXXX.........X",
"X.........XXXXXXXXX..                                 ..XXXXXXXXXXXXX                             .XXXXXXXXXXXXXXXXXXX.........X",
"X.........XXXXXXXXX.                                  .XXXXXXXXXXXXX.                             XXXXXXXXXXXXXXXXXXXX.........X",
"X.........XXXXXXXXX                                    XXXXXXXXXXXX..                            .XXXXXXXXXXXXXXXXXXXX.........X",
"X.........XXXXXXXXX.                                  XXXXXXXXXXXX                             . XXXXXXXXXXXXXXXXXXXXX.........X",
"X.........XXXXXXXXX.                                .XXXXXXXXXXXX.                             .XXXXXXXXXXXXXXXXXXXXXX.........X",
"X.........XXXXXXXXX.                                XXXXXXXXXXXX..                             XXXXXXXXXXXXXXXXXXXXXXX.........X",
"X.........XXXXXXXXX                             . .XXXXXXXXXXXX.                            ..XXXXXXXXXXXXXXXXXXXXXXXX.........X",
"X.........XXXXXXXXX                             ..XXXXXXXXXXXX..                            .XXXXXXXXXXXXXXXXXXXXXXXXX.........X",
"X.........XXXXXXXXX..                           .XXXXXXXXXXXX                              .XXXXXXXXXXXXXXXXXXXXXXXXXX.........X",
"X.........XXXXXXXXX.                            XXXXXXXXXXXXX                              XXXXXXXXXXXXXXXXXXXXXXXXXXX.........X",
"X.........XXXXXXXXX                         .. XXXXXXXXXXXXX..                          . .XXXXXXXXXXXXXXXXXXXXXXXXXXX.........X",
"X.........XXXXXXXXX.                         .XXXXXXXXXXXXX  .                          ..XXXXXXXXXXXXXXXXXXXXXXXXXXXX.........X",
"X.........XXXXXXXXX.                         .XXXXXXXXXXXX..                            .XXXXXXXXXXXXXXXXXXXXXXXXXXXXX.........X",
"X.........XXXXXXXXX.                         XXXXXXXXXXXX. .                            XXXXXXXXXXXXXXXXXXXXXXXXXXXXXX.........X",
"X.........XXXXXXXXX                       ..XXXXXXXXXXXX                            .. XXXXXXXXXXXXXXXXXXXXXXXXXXXXXXX.........X",
"X.........XXXXXXXXX                       .XXXXXXXXXXXX                              .XXXXXXXXXXXXXXXXXXXXXXXXXXXXXXXX.........X",
"X.........XXXXXXXXX..                   ..XXXXXXXXXXXX..                             XXXXXXXXXXXXXXXXXXXXXXXXXXXXXXXXX.........X",
"X.........XXXXXXXXX..                   .XXXXXXXXXXXX. .                            XXXXXXXXXXXXXXXXXXXXXXXXXXXXXXXXXX.........X",
"X.........XXXXXXXXX.                    XXXXXXXXXXXXX                             .XXXXXXXXXXXXXXXXXXXXXXXXXXXXXXXXXXX.........X",
"X.........XXXXXXXXX.                 ..XXXXXXXXXXXXX.                            ..XXXXXXXXXXXXXXXXXXXXXXXXXXXXXXXXXXX.........X",
"X.........XXXXXXXXX.                 .XXXXXXXXXXXXX .                           ..XXXXXXXXXXXXXXXXXXXXXXXXXXXXXXXXXXXX.........X",
"X.........XXXXXXXXX.                 XXXXXXXXXXXXX.                             .XXXXXXXXXXXXXXXXXXXXXXXXXXXXXXXXXXXXX.........X",
"X.........XXXXXXXXX.              . .XXXXXXXXXXXX.                              XXXXXXXXXXXXXXXXXXXXXXXXXXXXXXXXXXXXXX.........X",
"X.........XXXXXXXXX               ..XXXXXXXXXXXX..                           ..XXXXXXXXXXXXXXXXXXXXXXXXXXXXXXXXXXXXXXX.........X",
"X.........XXXXXXXXX.               XXXXXXXXXXXX.                             .XXXXXXXXXXXXXXXXXXXXXXXXXXXXXXXXXXXXXXXX.........X",
"X.........XXXXXXXXX.              XXXXXXXXXXXX..                           . XXXXXXXXXXXXXXXXXXXXXXXXXXXXXXXXXXXXXXXXX.........X",
"X.........XXXXXXXXX.          ...XXXXXXXXXXXX.                             .XXXXXXXXXXXXXXXXXXXXXXXXXXXXXXXXXXXXXXXXXX.........X",
"X.........XXXXXXXXX.           .XXXXXXXXXXXXX                              XXXXXXXXXXXXXXXXXXXXXXXXXXXXXXXXXXXXXXXXXXX.........X",
"X.........XXXXXXXXX...        .XXXXXXXXXXXXX..                          ...XXXXXXXXXXXXXXXXXXXXXXXXXXXXXXXXXXXXXXXXXXX.........X",
"X.........XXXXXXXXX.          XXXXXXXXXXXXX  .                           .XXXXXXXXXXXXXXXXXXXXXXXXXXXXXXXXXXXXXXXXXXXX.........X",
"X.........XXXXXXXXX.         XXXXXXXXXXXXX.                           .. XXXXXXXXXXXXXXXXXXXXXXXXXXXXXXXXXXXXXXXXXXXXX.........X",
"X.........XXXXXXXXX.        XXXXXXXXXXXXX...                           .XXXXXXXXXXXXXXXXXXXXXXXXXXXXXXXXXXXXXXXXXXXXXX.........X",
"X.........XXXXXXXXX.      .XXXXXXXXXXXXX                               XXXXXXXXXXXXXXXXXXXXXXXXXXXXXXXXXXXXXXXXXXXXXXX.........X",
"X.........XXXXXXXXX.     ..XXXXXXXXXXXXXX                               XXXXXXXXXXXXXXXXXXXXXXXXXXXXXXXXXXXXXXXXXXXXXX.........X",
"X.........XXXXXXXXX.      XXXXXXXXXXXXXXXX..                            .XXXXXXXXXXXXXXXXXXXXXXXXXXXXXXXXXXXXXXXXXXXXX.........X",
"X.........XXXXXXXXX    ..XXXXXXXXXXXXXXXXXX                             ..XXXXXXXXXXXXXXXXXXXXXXXXXXXXXXXXXXXXXXXXXXXX.........X",
"X.........XXXXXXXXX.   .XXXXXXXXXXXXXXXXXXXX..                            .XXXXXXXXXXXXXXXXXXXXXXXXXXXXXXXXXXXXXXXXXXX.........X",
"X.........XXXXXXXXX.   XXXXXXXXXXXXXXXXXXXXXX.                            . XXXXXXXXXXXXXXXXXXXXXXXXXXXXXXXXXXXXXXXXXX.........X",
"X.........XXXXXXXXX...XXXXXXXXXXXXXXXXXXXXXXX. .                            .XXXXXXXXXXXXXXXXXXXXXXXXXXXXXXXXXXXXXXXXX.........X",
"X.........XXXXXXXXX..XXXXXXXXXXXXXXXXXXXXXXXXX .                           ..XXXXXXXXXXXXXXXXXXXXXXXXXXXXXXXXXXXXXXXXX.........X",
"X.........XXXXXXXXX.XXXXXXXXXXXXXX  XXXXXXXXXXX.                              XXXXXXXXXXXXXXXXXXXXXXXXXXXXXXXXXXXXXXXX.........X",
"X.........XXXXXXXXXXXXXXXXXXXXXXX.  XXXXXXXXXXXX                              .XXXXXXXXXXXXXXXXXXXXXXXXXXXXXXXXXXXXXXX.........X",
"X.........XXXXXXXXXXXXXXXXXXXXXX.   .XXXXXXXXXXXX..                           ..XXXXXXXXXXXXXXXXXXXXXXXXXXXXXXXXXXXXXX.........X",
"X.........XXXXXXXXXXXXXXXXXXXXX...  ..XXXXXXXXXXXX.                             .XXXXXXXXXXXXXXXXXXXXXXXXXXXXXXXXXXXXX.........X",
"X.........XXXXXXXXXXXXXXXXXXXX      .  XXXXXXXXXXXX.                              XXXXXXXXXXXXXXXXXXXXXXXXXXXXXXXXXXXX.........X",
"X.........XXXXXXXXXXXXXXXXXXX         ..XXXXXXXXXXXX                              .XXXXXXXXXXXXXXXXXXXXXXXXXXXXXXXXXXX.........X",
"X.........XXXXXXXXXXXXXXXXXX..          .XXXXXXXXXXXX.                             .XXXXXXXXXXXXXXXXXXXXXXXXXXXXXXXXXX.........X",
"X.........XXXXXXXXXXXXXXXXX  .          ..XXXXXXXXXXXX                             ..XXXXXXXXXXXXXXXXXXXXXXXXXXXXXXXXX.........X",
"X.........XXXXXXXXXXXXXXXX..               XXXXXXXXXXXX..                             XXXXXXXXXXXXXXXXXXXXXXXXXXXXXXXX.........X",
"X.........XXXXXXXXXXXXXXX. .                XXXXXXXXXXX..                             .XXXXXXXXXXXXXXXXXXXXXXXXXXXXXXX.........X",
"X.........XXXXXXXXXXXXXX                    .XXXXXXXXXXX                              .XXXXXXXXXXXXXXXXXXXXXXXXXXXXXXX.........X",
"X.........XXXXXXXXXXXXX.                    .XXXXXXXXXXXX                             ..XXXXXXXXXXXXXXXXXXXXXXXXXXXXXX.........X",
"X.........XXXXXXXXXXXX                      . XXXXXXXXXXXX...                            XXXXXXXXXXXXXXXXXXXXXXXXXXXXX.........X",
"X.........XXXXXXXXXXX                         .XXXXXXXXXXXX.                              XXXXXXXXXXXXXXXXXXXXXXXXXXXX.........X",
"X.........XXXXXXXXXX..                        ..XXXXXXXXXXXX .                            .XXXXXXXXXXXXXXXXXXXXXXXXXXX.........X",
"X.........XXXXXXXXXX .                          .XXXXXXXXXXXX.                           ...XXXXXXXXXXXXXXXXXXXXXXXXXX.........X",
"X.........XXXXXXXXXX..                            XXXXXXXXXXXX..                             XXXXXXXXXXXXXXXXXXXXXXXXX.........X",
"X.........XXXXXXXXXX .                            .XXXXXXXXXXXX.                              XXXXXXXXXXXXXXXXXXXXXXXX.........X",
"X.........XXXXXXXXXX                                XXXXXXXXXXXX                              .XXXXXXXXXXXXXXXXXXXXXXX.........X",
"X.........XXXXXXXXXX                                .XXXXXXXXXXX                              . XXXXXXXXXXXXXXXXXXXXXX.........X",
"X.........XXXXXXXXXX                                 .XXXXXXXXXXX.                              .XXXXXXXXXXXXXXXXXXXXX.........X",
"X.........XXXXXXXXXX                                 ..XXXXXXXXXXX..                            ..XXXXXXXXXXXXXXXXXXXX.........X",
"X.........XXXXXXXXXX                                  .XXXXXXXXXXXX.                            . XXXXXXXXXXXXXXXXXXXX.........X",
"X.........XXXXXXXXXX                                  ..XXXXXXXXXXXX                              .XXXXXXXXXXXXXXXXXXX.........X",
"X.........XXXXXXXXXX                                     XXXXXXXXXXXX. .                            XXXXXXXXXXXXXXXXXX.........X",
"X.........XXXXXXXXXX                                      XXXXXXXXXXXX .                            .XXXXXXXXXXXXXXXXX.........X",
"X.........XXXXXXXXXX                                      .XXXXXXXXXXXX.                             .XXXXXXXXXXXXXXXX.........X",
"X.........XXXXXXXXXX                                      . XXXXXXXXXXXX                             ..XXXXXXXXXXXXXXX.........X",
"X.........XXXXXXXXXX..                                      .XXXXXXXXXXXX...                            XXXXXXXXXXXXXX.........X",
"X.........XXXXXXXXXX .                                      ..XXXXXXXXXXXX                              .XXXXXXXXXXXXX.........X",
"X.........XXXXXXXXXX                                        .  XXXXXXXXXXX                                XXXXXXXXXXXX.........X",
"X.........XXXXXXXXXX                                            XXXXXXXXXXX                             ...XXXXXXXXXXX.........X",
"X.........XXXXXXXXXX  ..  .     .     .   ..  ..    .       .   .XXXXXXXXXXX...   .     .     .     .       XXXXXXXXXX.........X",
"X.........XXXXXXXXXX   .  ..    ..    ..   .   .    ..      ..  .XXXXXXXXXXXX...  ..    ..    ..    ..      .XXXXXXXXX.........X",
"X.........XXXXXXXXXXXXXXXXXXXXXXXXXXXXXXXXXXXXXXXXXXXXXXXXXXXXXXXXXXXXXXXXXXXXXXXXXXXXXXXXXXXXXXXXXXXXXXXXXXXXXXXXXXXX.........X",
"X.........XXXXXXXXXXXXXXXXXXXXXXXXXXXXXXXXXXXXXXXXXXXXXXXXXXXXXXXXXXXXXXXXXXXXXXXXXXXXXXXXXXXXXXXXXXXXXXXXXXXXXXXXXXXX.........X",
"X.........XXXXXXXXXXXXXXXXXXXXXXXXXXXXXXXXXXXXXXXXXXXXXXXXXXXXXXXXXXXXXXXXXXXXXXXXXXXXXXXXXXXXXXXXXXXXXXXXXXXXXXXXXXXX.........X",
"X.........XXXXXXXXXXXXXXXXXXXXXXXXXXXXXXXXXXXXXXXXXXXXXXXXXXXXXXXXXXXXXXXXXXXXXXXXXXXXXXXXXXXXXXXXXXXXXXXXXXXXXXXXXXXX.........X",
"X.........XXXXXXXXXXXXXXXXXXXXXXXXXXXXXXXXXXXXXXXXXXXXXXXXXXXXXXXXXXXXXXXXXXXXXXXXXXXXXXXXXXXXXXXXXXXXXXXXXXXXXXXXXXXX.........X",
"X.........XXXXXXXXXXXXXXXXXXXXXXXXXXXXXXXXXXXXXXXXXXXXXXXXXXXXXXXXXXXXXXXXXXXXXXXXXXXXXXXXXXXXXXXXXXXXXXXXXXXXXXXXXXXX.........X",
"X.........XXXXXXXXXXXXXXXXXXXXXXXXXXXXXXXXXXXXXXXXXXXXXXXXXXXXXXXXXXXXXXXXXXXXXXXXXXXXXXXXXXXXXXXXXXXXXXXXXXXXXXXXXXXX.........X",
"X.........XXXXXXXXXXXXXXXXXXXXXXXXXXXXXXXXXXXXXXXXXXXXXXXXXXXXXXXXXXXXXXXXXXXXXXXXXXXXXXXXXXXXXXXXXXXXXXXXXXXXXXXXXXXX.........X",
"X..............................................................................................................................X",
"X..............................................................................................................................X",
"X..............................................................................................................................X",
"X..............................................................................................................................X",
"X..............................................................................................................................X",
"X..............................................................................................................................X",
"X..............................................................................................................................X",
"X..............................................................................................................................X",
"X..............................................................................................................................X",
"XXXXXXXXXXXXXXXXXXXXXXXXXXXXXXXXXXXXXXXXXXXXXXXXXXXXXXXXXXXXXXXXXXXXXXXXXXXXXXXXXXXXXXXXXXXXXXXXXXXXXXXXXXXXXXXXXXXXXXXXXXXXXXXX",
"XXXXXXXXXXXXXXXXXXXXXXXXXXXXXXXXXXXXXXXXXXXXXXXXXXXXXXXXXXXXXXXXXXXXXXXXXXXXXXXXXXXXXXXXXXXXXXXXXXXXXXXXXXXXXXXXXXXXXXXXXXXXXXXX",
"XXXXXXXXXXXXXXXXXXXXXXXXXXXXXXXXXXXXXXXXXXXXXXXXXXXXXXXXXXXXXXXXXXXXXXXXXXXXXXXXXXXXXXXXXXXXXXXXXXXXXXXXXXXXXXXXXXXXXXXXXXXXXXXX",
"XXXXXXXXXXXXXXXXXXXXXXXXXXXXXXXXXXXXXXXXXXXXXXXXXXXXXXXXXXXXXXXXXXXXXXXXXXXXXXXXXXXXXXXXXXXXXXXXXXXXXXXXXXXXXXXXXXXXXXXXXXXXXXXX",
"XXXXXXXXXXXXXXXXXXXXXXXXXXXXXXXXXXXXXXXXXXXXXXXXXXXXXXXXXXXXXXXXXXXXXXXXXXXXXXXXXXXXXXXXXXXXXXXXXXXXXXXXXXXXXXXXXXXXXXXXXXXXXXXX"
};
