/* XPM */
static char *_33fb1e7279d4e0ce1c2af49398b597e[] = {
/* columns rows colors chars-per-pixel */
"64 64 3 1 ",
"  c #E62D00",
". c #E62E00",
"X c None",
/* pixels */
"XXXXXXXXXXXXXXXXXXXXXXXXXXXXXXXXXXXXXXXXXXXXXXXXXXXXXXXXXXXXXXXX",
"XXXXXXXXXXXXXXXXXXXXXXXXXXXXXXXXXXXXXXXXXXXXXXXXXXXXXXXXXXXXXXXX",
"X...............................................................",
"X...............................................................",
"X...............................................................",
"X...............................................................",
"X...............................................................",
"X....XXXXXXXXXXXXXXXXXXXXXXXXXXXXXXXXXXXXXXXXXXXXXXXXXXXXXX.....",
"X....XXXXXXXXXXXXXXXXXXXXXXXXXXXXXXXXXXXXXXXXXXXXXXXXXXXXXX.....",
"X....XXXXXXXXXXXXXXXXXXXXXXXXXXXXXXXXXXXXXXXXXXXXXXXXXXXXXX.....",
"X....XXXXXXXXXXXXXXXXXXXXXXXXXXXXXXXXXXXXXXXXXXXXXXXXXXXXXX.....",
"X....XXXXX......... ...... ... ..XXXXXX ....... .. ...XXXXX.....",
"X....XXXXX  .           .      .XXXXXX  ..      .   .XXXXXX.....",
"X....XXXXX  .                  XXXXXX.              XXXXXXX.....",
"X....XXXXX                  ..XXXXXX.           .. XXXXXXXX.....",
"X....XXXXX                  .XXXXXX...           .XXXXXXXXX.....",
"X....XXXXX.                .XXXXXX               XXXXXXXXXX.....",
"X....XXXXX..               XXXXXX                XXXXXXXXXX.....",
"X....XXXXX              ..XXXXXX..            ..XXXXXXXXXXX.....",
"X....XXXXX              .XXXXXX. .            .XXXXXXXXXXXX.....",
"X....XXXXX.             XXXXXXX             ..XXXXXXXXXXXXX.....",
"X....XXXXX..          .XXXXXXX.             .XXXXXXXXXXXXXX.....",
"X....XXXXX          ...XXXXXX.              XXXXXXXXXXXXXXX.....",
"X....XXXXX           .XXXXXX..           ..XXXXXXXXXXXXXXXX.....",
"X....XXXXX..        .XXXXXX.            ..XXXXXXXXXXXXXXXXX.....",
"X....XXXXX .        XXXXXX..            .XXXXXXXXXXXXXXXXXX.....",
"X....XXXXX      .. XXXXXX               .XXXXXXXXXXXXXXXXXX.....",
"X....XXXXX       .XXXXXX.               XXXXXXXXXXXXXXXXXXX.....",
"X....XXXXX    .  XXXXXX..              XXXXXXXXXXXXXXXXXXXX.....",
"X....XXXXX    ..XXXXXX                XXXXXXXXXXXXXXXXXXXXX.....",
"X....XXXXX.    XXXXXXX.           . .XXXXXXXXXXXXXXXXXXXXXX.....",
"X....XXXXX..  XXXXXXX...          ..XXXXXXXXXXXXXXXXXXXXXXX.....",
"X....XXXXX  ..XXXXXX                XXXXXXXXXXXXXXXXXXXXXXX.....",
"X....XXXXX  .XXXXXXXX  .            .XXXXXXXXXXXXXXXXXXXXXX.....",
"X....XXXXX..XXXXXXXXXX..            ..XXXXXXXXXXXXXXXXXXXXX.....",
"X....XXXX..XXXXXXXXXXXX.             .XXXXXXXXXXXXXXXXXXXXX.....",
"X....XXXXXXXXXXXX.XXXXXX .             XXXXXXXXXXXXXXXXXXXX.....",
"X....XXXXXXXXXXX...XXXXXX.            ..XXXXXXXXXXXXXXXXXXX.....",
"X....XXXXXXXXXX   ..XXXXXX              .XXXXXXXXXXXXXXXXXX.....",
"X....XXXXXXXXX.     .XXXXXX             ..XXXXXXXXXXXXXXXXX.....",
"X....XXXXXXXX.        XXXXX...             XXXXXXXXXXXXXXXX.....",
"X....XXXXXXX..        .XXXXX              ..XXXXXXXXXXXXXXX.....",
"X....XXXXXX           .XXXXXX..             .XXXXXXXXXXXXXX.....",
"X....XXXXX.           ..XXXXXX.             ..XXXXXXXXXXXXX.....",
"X....XXXXX.              XXXXXX.               XXXXXXXXXXXX.....",
"X....XXXXX..              XXXXXX                XXXXXXXXXXX.....",
"X....XXXXX                .XXXXXX..             .XXXXXXXXXX.....",
"X....XXXXX               ...XXXXXX.             .XXXXXXXXXX.....",
"X....XXXXX                   XXXXXX.            . XXXXXXXXX.....",
"X....XXXXX                    XXXXXX              .XXXXXXXX.....",
"X....XXXXX.        .          .XXXXXX.            ..XXXXXXX.....",
"X....XXXXX..       .          ..XXXXX...      ..    .XXXXXX.....",
"X....XXXXX.. ...........  ... ..XXXXXX.. .......  ... XXXXX.....",
"X....XXXXXXXXXXXXXXXXXXXXXXXXXXXXXXXXXXXXXXXXXXXXXXXXXXXXXX.....",
"X....XXXXXXXXXXXXXXXXXXXXXXXXXXXXXXXXXXXXXXXXXXXXXXXXXXXXXX.....",
"X....XXXXXXXXXXXXXXXXXXXXXXXXXXXXXXXXXXXXXXXXXXXXXXXXXXXXXX.....",
"X....XXXXXXXXXXXXXXXXXXXXXXXXXXXXXXXXXXXXXXXXXXXXXXXXXXXXXX.....",
"X...............................................................",
"X...............................................................",
"X...............................................................",
"X...............................................................",
"X..............................................................X",
"XXXXXXXXXXXXXXXXXXXXXXXXXXXXXXXXXXXXXXXXXXXXXXXXXXXXXXXXXXXXXXXX",
"XXXXXXXXXXXXXXXXXXXXXXXXXXXXXXXXXXXXXXXXXXXXXXXXXXXXXXXXXXXXXXXX"
};
