/* XPM */
static char *bbbce63abae1465895732ce3d023a40f[] = {
/* columns rows colors chars-per-pixel */
"32 32 3 1 ",
"  c #E62D00",
". c #E62E00",
"X c None",
/* pixels */
"XXXXXXXXXXXXXXXXXXXXXXXXXXXXXXXX",
"................................",
"................................",
"...XXXXXXXXXXXXXXXXXXXXXXXXXX...",
"...XXXXXXXXXXXXXXXXXXXXXXXXXXX..",
"...XX...  ..... XXXX..  ...XXX..",
"...XX .     ....XXX..   ..XXXX..",
"...XX         .XXX..    .XXXXX..",
"...XX..     ..XXX     ...XXXXX..",
"...XX..     .XXX.      .XXXXXX..",
"...XX.      XXX .     .XXXXXXX..",
"...XX    ..XXX.       XXXXXXXX..",
"...XX.    XXX.      .XXXXXXXXX..",
"...XX. ..XXX..      XXXXXXXXXX..",
"...XX...XXX.    .. XXXXXXXXXXX..",
"...XX. XXXX.     .XXXXXXXXXXXX..",
"...XX..XXX..      XXXXXXXXXXXX..",
"...XX.XXXXX.      .XXXXXXXXXXX..",
"...XXXXX.XXX      ..XXXXXXXXXX..",
"...XXXX ..XXX  .    .XXXXXXXXX..",
"...XXX. .  XXX..      XXXXXXXX..",
"...XX...  ..XXX.      .XXXXXXX..",
"...XX.      .XXX .      XXXXXX..",
"...XX       ..XXX.      XXXXXX..",
"...XX.. .      XXX..    .XXXXX..",
"...XX.  ..    ..XX .   ...XXXX..",
"...XXXXXXXXXXXX.XXXX  .....XXX..",
"...XXXXXXXXXXXXXXXXXXXXXXXXXXX..",
"...XX......  ...XXX.... ...XX...",
"................................",
"................................",
"XXXXXXXXXXXXXXXXXXXXXXXXXXXXXXXX"
};
