/* XPM */
static char *_1ca4b06fa674db7f63028adcfbf7ef2[] = {
/* columns rows colors chars-per-pixel */
"96 96 3 1 ",
"  c #E62D00",
". c #E62E00",
"X c None",
/* pixels */
"XXXXXXXXXXXXXXXXXXXXXXXXXXXXXXXXXXXXXXXXXXXXXXXXXXXXXXXXXXXXXXXXXXXXXXXXXXXXXXXXXXXXXXXXXXXXXXXX",
"XXXXXXXXXXXXXXXXXXXXXXXXXXXXXXXXXXXXXXXXXXXXXXXXXXXXXXXXXXXXXXXXXXXXXXXXXXXXXXXXXXXXXXXXXXXXXXXX",
"XXXXXXXXXXXXXXXXXXXXXXXXXXXXXXXXXXXXXXXXXXXXXXXXXXXXXXXXXXXXXXXXXXXXXXXXXXXXXXXXXXXXXXXXXXXXXXXX",
"X..............................................................................................X",
"X...............................................................................................",
"X..............................................................................................X",
"X...............................................................................................",
"X...............................................................................................",
"X...............................................................................................",
"X...............................................................................................",
"X.......XXXXXXXXXXXXXXXXXXXXXXXXXXXXXXXXXXXXXXXXXXXXXXXXXXXXXXXXXXXXXXXXXXXXXXXXXXXXXXXX........",
"X.......XXXXXXXXXXXXXXXXXXXXXXXXXXXXXXXXXXXXXXXXXXXXXXXXXXXXXXXXXXXXXXXXXXXXXXXXXXXXXXXXX.......",
"X.......XXXXXXXXXXXXXXXXXXXXXXXXXXXXXXXXXXXXXXXXXXXXXXXXXXXXXXXXXXXXXXXXXXXXXXXXXXXXXXXXX.......",
"X.......XXXXXXXXXXXXXXXXXXXXXXXXXXXXXXXXXXXXXXXXXXXXXXXXXXXXXXXXXXXXXXXXXXXXXXXXXXXXXXXXX.......",
"X.......XXXXXXXXXXXXXXXXXXXXXXXXXXXXXXXXXXXXXXXXXXXXXXXXXXXXXXXXXXXXXXXXXXXXXXXXXXXXXXXXX.......",
"X.......XXXXXXXXXXXXXXXXXXXXXXXXXXXXXXXXXXXXXXXXXXXXXXXXXXXXXXXXXXXXXXXXXXXXXXXXXXXXXXXXX.......",
"X.......XXXXXX                                  .XXXXXXXXX                      .XXXXXXXX.......",
"X.......XXXXXX                                  .XXXXXXXXX                      .XXXXXXXX.......",
"X.......XXXXXX.                               ..XXXXXXXXX.                    ..XXXXXXXXX.......",
"X.......XXXXXX..                              .XXXXXXXXX..                    .XXXXXXXXXX.......",
"X.......XXXXXX                              ..XXXXXXXXX.                      XXXXXXXXXXX.......",
"X.......XXXXXX                              .XXXXXXXXX                     ..XXXXXXXXXXXX.......",
"X.......XXXXXX                              XXXXXXXXX.                     .XXXXXXXXXXXXX.......",
"X.......XXXXXX                           ..XXXXXXXXX..                     XXXXXXXXXXXXXX.......",
"X.......XXXXXX.                         ..XXXXXXXXX                     ..XXXXXXXXXXXXXXX.......",
"X.......XXXXXX..                        .XXXXXXXXX.                      .XXXXXXXXXXXXXXX.......",
"X.......XXXXXX                          XXXXXXXXXX                       XXXXXXXXXXXXXXXX.......",
"X.......XXXXXX                       ..XXXXXXXXXX.                      XXXXXXXXXXXXXXXXX.......",
"X.......XXXXXX                         XXXXXXXXX.                   ...XXXXXXXXXXXXXXXXXX.......",
"X.......XXXXXX                        XXXXXXXXX ..                   .XXXXXXXXXXXXXXXXXXX.......",
"X.......XXXXXX.                   . .XXXXXXXXX                    .. XXXXXXXXXXXXXXXXXXXX.......",
"X.......XXXXXX..                  ..XXXXXXXXX.                     .XXXXXXXXXXXXXXXXXXXXX.......",
"X.......XXXXXX                    .XXXXXXXXX..                     XXXXXXXXXXXXXXXXXXXXXX.......",
"X.......XXXXXX                    XXXXXXXXX. .                    XXXXXXXXXXXXXXXXXXXXXXX.......",
"X.......XXXXXX                .  XXXXXXXXX                      ..XXXXXXXXXXXXXXXXXXXXXXX.......",
"X.......XXXXXX                ..XXXXXXXXXX                      .XXXXXXXXXXXXXXXXXXXXXXXX.......",
"X.......XXXXXX.                XXXXXXXXXX..                     XXXXXXXXXXXXXXXXXXXXXXXXX.......",
"X.......XXXXXX..              XXXXXXXXXX                      .XXXXXXXXXXXXXXXXXXXXXXXXXX.......",
"X.......XXXXXX              ..XXXXXXXXX.                    ..XXXXXXXXXXXXXXXXXXXXXXXXXXX.......",
"X.......XXXXXX              .XXXXXXXXX..                    .XXXXXXXXXXXXXXXXXXXXXXXXXXXX.......",
"X.......XXXXXX             .XXXXXXXXX..                   ..XXXXXXXXXXXXXXXXXXXXXXXXXXXXX.......",
"X.......XXXXXX             XXXXXXXXX                      .XXXXXXXXXXXXXXXXXXXXXXXXXXXXXX.......",
"X.......XXXXXX.         ..XXXXXXXXX.                      XXXXXXXXXXXXXXXXXXXXXXXXXXXXXXX.......",
"X.......XXXXXX..        .XXXXXXXXX..                      XXXXXXXXXXXXXXXXXXXXXXXXXXXXXXX.......",
"X.......XXXXXX          XXXXXXXXXX                      .XXXXXXXXXXXXXXXXXXXXXXXXXXXXXXXX.......",
"X.......XXXXXX        .XXXXXXXXXX.                      XXXXXXXXXXXXXXXXXXXXXXXXXXXXXXXXX.......",
"X.......XXXXXX      ..XXXXXXXXXX.                   . .XXXXXXXXXXXXXXXXXXXXXXXXXXXXXXXXXX.......",
"X.......XXXXXX      .XXXXXXXXXX...                  ..XXXXXXXXXXXXXXXXXXXXXXXXXXXXXXXXXXX.......",
"X.......XXXXXX..    XXXXXXXXXX..                      XXXXXXXXXXXXXXXXXXXXXXXXXXXXXXXXXXX.......",
"X.......XXXXXX .    XXXXXXXXXXX.                      XXXXXXXXXXXXXXXXXXXXXXXXXXXXXXXXXXX.......",
"X.......XXXXXX  . .XXXXXXXXXXXXX                      .XXXXXXXXXXXXXXXXXXXXXXXXXXXXXXXXXX.......",
"X.......XXXXXX  ..XXXXXXXXXXXXXXX                     . XXXXXXXXXXXXXXXXXXXXXXXXXXXXXXXXX.......",
"X.......XXXXXX...XXXXXXXXXXXXXXXXX..                    .XXXXXXXXXXXXXXXXXXXXXXXXXXXXXXXX.......",
"X.......XXXXXX .XXXXXXXXXXXXXXXXXXX.                    ..XXXXXXXXXXXXXXXXXXXXXXXXXXXXXXX.......",
"X.......XXXXXX XXXXXXXXXX. XXXXXXXXX                    . .XXXXXXXXXXXXXXXXXXXXXXXXXXXXXX.......",
"X.......XXXXXXXXXXXXXXXX..  XXXXXXXX                      ..XXXXXXXXXXXXXXXXXXXXXXXXXXXXX.......",
"X.......XXXXXXXXXXXXXXX.    .XXXXXXXX...                     XXXXXXXXXXXXXXXXXXXXXXXXXXXX.......",
"X.......XXXXXXXXXXXXXX      .XXXXXXXXX                        XXXXXXXXXXXXXXXXXXXXXXXXXXX.......",
"X.......XXXXXXXXXXXXX.      . XXXXXXXXX.                     ..XXXXXXXXXXXXXXXXXXXXXXXXXX.......",
"X.......XXXXXXXXXXXX..        .XXXXXXXXX                     ..XXXXXXXXXXXXXXXXXXXXXXXXXX.......",
"X.......XXXXXXXXXXX.            XXXXXXXXX..                     XXXXXXXXXXXXXXXXXXXXXXXXX.......",
"X.......XXXXXXXXXX..            .XXXXXXXXX.                     .XXXXXXXXXXXXXXXXXXXXXXXX.......",
"X.......XXXXXXXXX.              ..XXXXXXXXX.                      XXXXXXXXXXXXXXXXXXXXXXX.......",
"X.......XXXXXXXX                  .XXXXXXXXX                    ...XXXXXXXXXXXXXXXXXXXXXX.......",
"X.......XXXXXXX..                   XXXXXXXXX..                     XXXXXXXXXXXXXXXXXXXXX.......",
"X.......XXXXXXX..                   .XXXXXXXXX.                     .XXXXXXXXXXXXXXXXXXXX.......",
"X.......XXXXXXX.                    . XXXXXXXX..                     .XXXXXXXXXXXXXXXXXXX.......",
"X.......XXXXXXX.                    . .XXXXXXXX.                     ..XXXXXXXXXXXXXXXXXX.......",
"X.......XXXXXXX.                      .XXXXXXXXX                        XXXXXXXXXXXXXXXXX.......",
"X.......XXXXXXX.                      . XXXXXXXXX                       .XXXXXXXXXXXXXXXX.......",
"X.......XXXXXXX.                        .XXXXXXXXX..                    .XXXXXXXXXXXXXXXX.......",
"X.......XXXXXXX.                        ..XXXXXXXXX                     ..XXXXXXXXXXXXXXX.......",
"X.......XXXXXXX.                          .XXXXXXXXX...                    XXXXXXXXXXXXXX.......",
"X.......XXXXXXX.                          . XXXXXXXXX.                    ..XXXXXXXXXXXXX.......",
"X.......XXXXXXX.                            .XXXXXXXXX .                    .XXXXXXXXXXXX.......",
"X.......XXXXXXX.                           ...XXXXXXXXX.                    ..XXXXXXXXXXX.......",
"X.......XXXXXXX.                               XXXXXXXX.                       XXXXXXXXXX.......",
"X.......XXXXXXX.     .     .     .     .     .  XXXXXXXX                        XXXXXXXXX.......",
"X.......XXXXXXX...  ....  ....  ....  ....  .....XXXXXXXX..                     .XXXXXXXX.......",
"X.......XXXXXXXXXXXXXXXXXXXXXXXXXXXXXXXXXXXXXXXXXXXXXXXXXX.                     .XXXXXXXX.......",
"X.......XXXXXXXXXXXXXXXXXXXXXXXXXXXXXXXXXXXXXXXXXXXXXXXXXXXXXXXXXXXXXXXXXXXXXXXXXXXXXXXXX.......",
"X.......XXXXXXXXXXXXXXXXXXXXXXXXXXXXXXXXXXXXXXXXXXXXXXXXXXXXXXXXXXXXXXXXXXXXXXXXXXXXXXXXX.......",
"X.......XXXXXXXXXXXXXXXXXXXXXXXXXXXXXXXXXXXXXXXXXXXXXXXXXXXXXXXXXXXXXXXXXXXXXXXXXXXXXXXXX.......",
"X.......XXXXXXXXXXXXXXXXXXXXXXXXXXXXXXXXXXXXXXXXXXXXXXXXXXXXXXXXXXXXXXXXXXXXXXXXXXXXXXXXX.......",
"X.......XXXXXXXXXXXXXXXXXXXXXXXXXXXXXXXXXXXXXXXXXXXXXXXXXXXXXXXXXXXXXXXXXXXXXXXXXXXXXXXXX.......",
"X........XXXXXXXXXXXXXXXXXXXXXXXXXXXXXXXXXXXXXXXXXXXXXXXXXXXXXXXXXXXXXXXXXXXXXXXXXXXXXXX........",
"X...............................................................................................",
"X...............................................................................................",
"X...............................................................................................",
"X...............................................................................................",
"X..............................................................................................X",
"X...............................................................................................",
"XXXXXXXXXXXXXXXXXXXXXXXXXXXXXXXXXXXXXXXXXXXXXXXXXXXXXXXXXXXXXXXXXXXXXXXXXXXXXXXXXXXXXXXXXXXXXX.X",
"XXXXXXXXXXXXXXXXXXXXXXXXXXXXXXXXXXXXXXXXXXXXXXXXXXXXXXXXXXXXXXXXXXXXXXXXXXXXXXXXXXXXXXXXXXXXXXXX",
"XXXXXXXXXXXXXXXXXXXXXXXXXXXXXXXXXXXXXXXXXXXXXXXXXXXXXXXXXXXXXXXXXXXXXXXXXXXXXXXXXXXXXXXXXXXXXXXX",
"XXXXXXXXXXXXXXXXXXXXXXXXXXXXXXXXXXXXXXXXXXXXXXXXXXXXXXXXXXXXXXXXXXXXXXXXXXXXXXXXXXXXXXXXXXXXXXXX"
};
